<svg width="150" height="33" viewBox="0 0 150 33" fill="none" xmlns="http://www.w3.org/2000/svg">
<g clip-path="url(#clip0_1_2)">
<path d="M13.6211 5.40625V31H7.45117V5.40625H13.6211ZM23.5703 16.0586V20.8047H11.8633V16.0586H23.5703ZM24.5723 5.40625V10.1699H11.8633V5.40625H24.5723ZM33.1152 11.9805V31H27.1738V11.9805H33.1152ZM26.8223 7.07617C26.8223 6.23242 27.127 5.54102 27.7363 5.00195C28.3457 4.46289 29.1367 4.19336 30.1094 4.19336C31.082 4.19336 31.873 4.46289 32.4824 5.00195C33.0918 5.54102 33.3965 6.23242 33.3965 7.07617C33.3965 7.91992 33.0918 8.61133 32.4824 9.15039C31.873 9.68945 31.082 9.95898 30.1094 9.95898C29.1367 9.95898 28.3457 9.68945 27.7363 9.15039C27.127 8.61133 26.8223 7.91992 26.8223 7.07617ZM42.5898 16.041V31H36.666V11.9805H42.2207L42.5898 16.041ZM41.8867 20.8398L40.498 20.875C40.498 19.4219 40.6738 18.127 41.0254 16.9902C41.377 15.8418 41.875 14.8691 42.5195 14.0723C43.1641 13.2754 43.9316 12.6719 44.8223 12.2617C45.7246 11.8398 46.7266 11.6289 47.8281 11.6289C48.707 11.6289 49.5098 11.7578 50.2363 12.0156C50.9746 12.2734 51.6074 12.6895 52.1348 13.2637C52.6738 13.8379 53.084 14.5996 53.3652 15.5488C53.6582 16.4863 53.8047 17.6465 53.8047 19.0293V31H47.8457V19.0117C47.8457 18.25 47.7402 17.6699 47.5293 17.2715C47.3184 16.8613 47.0137 16.5801 46.6152 16.4277C46.2168 16.2754 45.7305 16.1992 45.1562 16.1992C44.5469 16.1992 44.0312 16.3164 43.6094 16.5508C43.1875 16.7852 42.8477 17.1133 42.5898 17.5352C42.3438 17.9453 42.1621 18.4316 42.0449 18.9941C41.9395 19.5566 41.8867 20.1719 41.8867 20.8398ZM66.9707 26.2188V18.3789C66.9707 17.8398 66.8945 17.377 66.7422 16.9902C66.5898 16.6035 66.3496 16.3047 66.0215 16.0938C65.6934 15.8711 65.2539 15.7598 64.7031 15.7598C64.2578 15.7598 63.877 15.8359 63.5605 15.9883C63.2441 16.1406 63.0039 16.3691 62.8398 16.6738C62.6758 16.9785 62.5938 17.3652 62.5938 17.834H56.6699C56.6699 16.9551 56.8633 16.1406 57.25 15.3906C57.6484 14.6289 58.2109 13.9668 58.9375 13.4043C59.6758 12.8418 60.5547 12.4082 61.5742 12.1035C62.6055 11.7871 63.7539 11.6289 65.0195 11.6289C66.5312 11.6289 67.8789 11.8809 69.0625 12.3848C70.2578 12.8887 71.2012 13.6445 71.8926 14.6523C72.584 15.6484 72.9297 16.9023 72.9297 18.4141V26.2012C72.9297 27.4434 73 28.3867 73.1406 29.0312C73.2812 29.6641 73.4805 30.2207 73.7383 30.7012V31H67.7969C67.5156 30.4141 67.3047 29.6992 67.1641 28.8555C67.0352 28 66.9707 27.1211 66.9707 26.2188ZM67.6914 19.3809L67.7266 22.5449H65.1074C64.5566 22.5449 64.0879 22.6211 63.7012 22.7734C63.3262 22.9258 63.0215 23.1367 62.7871 23.4062C62.5645 23.6641 62.4004 23.957 62.2949 24.2852C62.2012 24.6133 62.1543 24.959 62.1543 25.3223C62.1543 25.6738 62.2363 25.9902 62.4004 26.2715C62.5762 26.541 62.8105 26.752 63.1035 26.9043C63.3965 27.0566 63.7246 27.1328 64.0879 27.1328C64.7441 27.1328 65.3008 27.0098 65.7578 26.7637C66.2266 26.5059 66.584 26.1953 66.8301 25.832C67.0762 25.4688 67.1992 25.1289 67.1992 24.8125L68.5 27.2383C68.2656 27.707 67.9961 28.1816 67.6914 28.6621C67.3984 29.1426 67.0293 29.5879 66.584 29.998C66.1504 30.3965 65.6172 30.7246 64.9844 30.9824C64.3516 31.2285 63.584 31.3516 62.6816 31.3516C61.5098 31.3516 60.4316 31.1113 59.4473 30.6309C58.4746 30.1504 57.6953 29.4824 57.1094 28.627C56.5234 27.7598 56.2305 26.7637 56.2305 25.6387C56.2305 24.6543 56.4062 23.7754 56.7578 23.002C57.1211 22.2285 57.666 21.5723 58.3926 21.0332C59.1191 20.4941 60.0449 20.084 61.1699 19.8027C62.2949 19.5215 63.6191 19.3809 65.1426 19.3809H67.6914ZM82.0352 16.041V31H76.1113V11.9805H81.666L82.0352 16.041ZM81.332 20.8398L79.9434 20.875C79.9434 19.4219 80.1191 18.127 80.4707 16.9902C80.8223 15.8418 81.3203 14.8691 81.9648 14.0723C82.6094 13.2754 83.377 12.6719 84.2676 12.2617C85.1699 11.8398 86.1719 11.6289 87.2734 11.6289C88.1523 11.6289 88.9551 11.7578 89.6816 12.0156C90.4199 12.2734 91.0527 12.6895 91.5801 13.2637C92.1191 13.8379 92.5293 14.5996 92.8105 15.5488C93.1035 16.4863 93.25 17.6465 93.25 19.0293V31H87.291V19.0117C87.291 18.25 87.1855 17.6699 86.9746 17.2715C86.7637 16.8613 86.459 16.5801 86.0605 16.4277C85.6621 16.2754 85.1758 16.1992 84.6016 16.1992C83.9922 16.1992 83.4766 16.3164 83.0547 16.5508C82.6328 16.7852 82.293 17.1133 82.0352 17.5352C81.7891 17.9453 81.6074 18.4316 81.4902 18.9941C81.3848 19.5566 81.332 20.1719 81.332 20.8398ZM104.57 26.7812C105.121 26.7812 105.59 26.6816 105.977 26.4824C106.375 26.2715 106.674 25.9785 106.873 25.6035C107.084 25.2168 107.184 24.7539 107.172 24.2148H112.744C112.756 25.6445 112.404 26.8984 111.689 27.9766C110.986 29.043 110.025 29.875 108.807 30.4727C107.6 31.0586 106.234 31.3516 104.711 31.3516C103.223 31.3516 101.922 31.1113 100.809 30.6309C99.6953 30.1387 98.7637 29.459 98.0137 28.5918C97.2754 27.7129 96.7188 26.6875 96.3438 25.5156C95.9805 24.3438 95.7988 23.0723 95.7988 21.7012V21.2969C95.7988 19.9258 95.9805 18.6543 96.3438 17.4824C96.7188 16.2988 97.2754 15.2734 98.0137 14.4062C98.7637 13.5273 99.6895 12.8477 100.791 12.3672C101.904 11.875 103.199 11.6289 104.676 11.6289C106.258 11.6289 107.652 11.9277 108.859 12.5254C110.078 13.123 111.033 13.9902 111.725 15.127C112.416 16.2637 112.756 17.6406 112.744 19.2578H107.172C107.184 18.6836 107.096 18.168 106.908 17.7109C106.721 17.2539 106.428 16.8906 106.029 16.6211C105.643 16.3398 105.145 16.1992 104.535 16.1992C103.926 16.1992 103.434 16.334 103.059 16.6035C102.684 16.873 102.396 17.248 102.197 17.7285C102.01 18.1973 101.881 18.7363 101.811 19.3457C101.752 19.9551 101.723 20.6055 101.723 21.2969V21.7012C101.723 22.4043 101.752 23.0664 101.811 23.6875C101.881 24.2969 102.016 24.8359 102.215 25.3047C102.414 25.7617 102.701 26.125 103.076 26.3945C103.451 26.6523 103.949 26.7812 104.57 26.7812ZM121.533 11.9805V31H115.592V11.9805H121.533ZM115.24 7.07617C115.24 6.23242 115.545 5.54102 116.154 5.00195C116.764 4.46289 117.555 4.19336 118.527 4.19336C119.5 4.19336 120.291 4.46289 120.9 5.00195C121.51 5.54102 121.814 6.23242 121.814 7.07617C121.814 7.91992 121.51 8.61133 120.9 9.15039C120.291 9.68945 119.5 9.95898 118.527 9.95898C117.555 9.95898 116.764 9.68945 116.154 9.15039C115.545 8.61133 115.24 7.91992 115.24 7.07617ZM124.451 21.6836V21.3145C124.451 19.9199 124.65 18.6367 125.049 17.4648C125.447 16.2812 126.033 15.2559 126.807 14.3887C127.58 13.5215 128.535 12.8477 129.672 12.3672C130.809 11.875 132.121 11.6289 133.609 11.6289C135.109 11.6289 136.428 11.875 137.564 12.3672C138.713 12.8477 139.674 13.5215 140.447 14.3887C141.221 15.2559 141.807 16.2812 142.205 17.4648C142.604 18.6367 142.803 19.9199 142.803 21.3145V21.6836C142.803 23.0664 142.604 24.3496 142.205 25.5332C141.807 26.7051 141.221 27.7305 140.447 28.6094C139.674 29.4766 138.719 30.1504 137.582 30.6309C136.445 31.1113 135.133 31.3516 133.645 31.3516C132.156 31.3516 130.838 31.1113 129.689 30.6309C128.541 30.1504 127.58 29.4766 126.807 28.6094C126.033 27.7305 125.447 26.7051 125.049 25.5332C124.65 24.3496 124.451 23.0664 124.451 21.6836ZM130.375 21.3145V21.6836C130.375 22.3984 130.428 23.0664 130.533 23.6875C130.639 24.3086 130.814 24.8535 131.061 25.3223C131.307 25.7793 131.641 26.1367 132.062 26.3945C132.484 26.6523 133.012 26.7812 133.645 26.7812C134.266 26.7812 134.781 26.6523 135.191 26.3945C135.613 26.1367 135.947 25.7793 136.193 25.3223C136.439 24.8535 136.615 24.3086 136.721 23.6875C136.826 23.0664 136.879 22.3984 136.879 21.6836V21.3145C136.879 20.623 136.826 19.9727 136.721 19.3633C136.615 18.7422 136.439 18.1973 136.193 17.7285C135.947 17.248 135.613 16.873 135.191 16.6035C134.77 16.334 134.242 16.1992 133.609 16.1992C132.988 16.1992 132.467 16.334 132.045 16.6035C131.635 16.873 131.307 17.248 131.061 17.7285C130.814 18.1973 130.639 18.7422 130.533 19.3633C130.428 19.9727 130.375 20.623 130.375 21.3145Z" fill="#191919"/>
<circle cx="118.5" cy="6" r="4" fill="#26A646"/>
<circle cx="30.0953" cy="6" r="4" fill="#26A646"/>
</g>
<defs>
<clipPath id="clip0_1_2">
<rect width="150" height="33" fill="white"/>
</clipPath>
</defs>
</svg>
